<?xml version="1.0" encoding="UTF-8"?>
<svg version="1.1" xmlns="http://www.w3.org/2000/svg" width="148" height="148">
<path d="M0 0 C48.84 0 97.68 0 148 0 C148 48.84 148 97.68 148 148 C99.16 148 50.32 148 0 148 C0 99.16 0 50.32 0 0 Z " fill="#FEFEFE" transform="translate(0,0)"/>
<path d="M0 0 C9.79764594 7.04314761 17.05289029 16.29561069 19.625 28.375 C20.27647225 32.60956965 20.63568732 36.88135972 20.90625 41.15625 C21.08586897 43.40950705 21.08586897 43.40950705 23.25 45.1875 C23.48046875 47.75390625 23.48046875 47.75390625 23.4375 50.75 C23.43105469 51.74128906 23.42460937 52.73257813 23.41796875 53.75390625 C23.25 56.1875 23.25 56.1875 22.25 57.1875 C20.23035801 57.25994053 18.20832876 57.27127188 16.1875 57.25 C15.08277344 57.24097656 13.97804688 57.23195313 12.83984375 57.22265625 C11.98519531 57.21105469 11.13054687 57.19945313 10.25 57.1875 C9.98316406 57.95578125 9.71632813 58.7240625 9.44140625 59.515625 C7.65543112 63.52089383 5.12321537 65.26561937 1.25 67.1875 C-3.56636804 68.68074672 -7.45266807 68.66177291 -12.0625 66.5625 C-15.4119736 64.6370541 -17.66583373 62.48742993 -19.75 59.1875 C-19.75 58.5275 -19.75 57.8675 -19.75 57.1875 C-24.66224857 57.18216888 -29.57212451 57.21574568 -34.48388672 57.28515625 C-36.15405227 57.3033067 -37.82436793 57.31088644 -39.49462891 57.30761719 C-41.89863978 57.30475697 -44.29954474 57.34009432 -46.703125 57.3828125 C-47.44806213 57.37371857 -48.19299927 57.36462463 -48.96051025 57.35525513 C-51.36108071 57.35900259 -51.36108071 57.35900259 -54.75 58.1875 C-57.20316007 61.03076896 -57.20316007 61.03076896 -58.75 64.1875 C-62.5484017 67.30267742 -66.4886119 68.52534471 -71.375 68.1875 C-76.57354421 67.30016228 -80.1376781 65.01479815 -83.625 61.0625 C-84.75 59.1875 -84.75 59.1875 -84.75 57.1875 C-85.44867188 57.21070312 -86.14734375 57.23390625 -86.8671875 57.2578125 C-88.23230469 57.28488281 -88.23230469 57.28488281 -89.625 57.3125 C-90.52992187 57.33570312 -91.43484375 57.35890625 -92.3671875 57.3828125 C-94.75 57.1875 -94.75 57.1875 -96.75 55.1875 C-97.015625 52.875 -97.015625 52.875 -97 50.1875 C-97.00515625 49.300625 -97.0103125 48.41375 -97.015625 47.5 C-96.75 45.1875 -96.75 45.1875 -94.75 43.1875 C-94.142223 41.17981957 -93.58744909 39.15591163 -93.0625 37.125 C-90.11208585 27.33351568 -85.28322787 21.31826643 -76.3671875 16.3046875 C-73.69278374 15.16307634 -71.4363253 14.73313628 -68.5625 14.375 C-65.46488352 13.90289049 -64.13512246 13.58001287 -61.91796875 11.3203125 C-60.78820511 9.7486975 -59.67532048 8.1648349 -58.578125 6.5703125 C-44.98201725 -11.15111 -17.4593135 -10.87199321 0 0 Z " fill="#E9E8E9" transform="translate(110.75,43.8125)"/>
<path d="M0 0 C5.50167681 6.4852168 6.25164296 15.80349548 6.69140625 24.0390625 C6.83934044 26.23173064 6.83934044 26.23173064 9 28 C9.23046875 30.56640625 9.23046875 30.56640625 9.1875 33.5625 C9.18105469 34.55378906 9.17460937 35.54507813 9.16796875 36.56640625 C9 39 9 39 8 40 C5.98035801 40.07244053 3.95832876 40.08377188 1.9375 40.0625 C0.83277344 40.05347656 -0.27195312 40.04445312 -1.41015625 40.03515625 C-2.26480469 40.02355469 -3.11945313 40.01195312 -4 40 C-4.26683594 40.76828125 -4.53367187 41.5365625 -4.80859375 42.328125 C-6.59456888 46.33339383 -9.12678463 48.07811937 -13 50 C-17.81636804 51.49324672 -21.70266807 51.47427291 -26.3125 49.375 C-29.6619736 47.4495541 -31.91583373 45.29992993 -34 42 C-34 41.34 -34 40.68 -34 40 C-38.91224857 39.99466888 -43.82212451 40.02824568 -48.73388672 40.09765625 C-50.40405227 40.1158067 -52.07436793 40.12338644 -53.74462891 40.12011719 C-56.14863978 40.11725697 -58.54954474 40.15259432 -60.953125 40.1953125 C-61.69806213 40.18621857 -62.44299927 40.17712463 -63.21051025 40.16775513 C-65.61108071 40.17150259 -65.61108071 40.17150259 -69 41 C-71.45316007 43.84326896 -71.45316007 43.84326896 -73 47 C-76.7984017 50.11517742 -80.7386119 51.33784471 -85.625 51 C-90.82354421 50.11266228 -94.3876781 47.82729815 -97.875 43.875 C-99 42 -99 42 -99 40 C-99.69867188 40.02320313 -100.39734375 40.04640625 -101.1171875 40.0703125 C-102.02726562 40.08835938 -102.93734375 40.10640625 -103.875 40.125 C-104.77992187 40.14820313 -105.68484375 40.17140625 -106.6171875 40.1953125 C-109 40 -109 40 -111 38 C-111.265625 35.6875 -111.265625 35.6875 -111.25 33 C-111.25515625 32.113125 -111.2603125 31.22625 -111.265625 30.3125 C-111 28 -111 28 -109 26 C-107.95651983 22.74679712 -107.08156217 19.46329445 -106.1953125 16.1640625 C-104.9456588 12.85615564 -103.66675354 11.26506681 -101 9 C-101.44472656 10.04220703 -101.44472656 10.04220703 -101.8984375 11.10546875 C-103.05578837 14.14659284 -103.86065004 17.15087063 -104.625 20.3125 C-104.88539062 21.38113281 -105.14578125 22.44976562 -105.4140625 23.55078125 C-105.70410156 24.76314453 -105.70410156 24.76314453 -106 26 C-99.3748411 25.65731937 -96.82141184 24.49267921 -92 20 C-88.38873789 17.55366115 -85.3034587 17.56965413 -81 18 C-76.57879614 19.62297357 -73.64571932 21.03142102 -71 25 C-68.16162709 25.32924207 -65.54628076 25.46803602 -62.703125 25.46875 C-61.87673523 25.47636353 -61.05034546 25.48397705 -60.19891357 25.49182129 C-58.44709292 25.50263933 -56.69520767 25.50546848 -54.94335938 25.50097656 C-52.27362817 25.50000857 -49.60681255 25.54151477 -46.9375 25.5859375 C-45.23438098 25.5911479 -43.53125199 25.59383264 -41.828125 25.59375 C-40.63718231 25.6183429 -40.63718231 25.6183429 -39.42218018 25.64343262 C-33.57210004 25.57122291 -31.14693636 24.1075318 -27 20 C-23.38873789 17.55366115 -20.3034587 17.56965413 -16 18 C-10.87360197 19.79841088 -8.4932009 21.0135982 -6 26 C-2.7 26 0.6 26 4 26 C3.71722382 23.10304831 3.42412587 20.2077705 3.125 17.3125 C3.04636719 16.49587891 2.96773438 15.67925781 2.88671875 14.83789062 C2.4333028 10.53043909 1.76405371 6.99506281 0 3 C0 2.01 0 1.02 0 0 Z " fill="#DBDBDB" transform="translate(125,61)"/>
<path d="M0 0 C0 6.27 0 12.54 0 19 C-9.9 19 -19.8 19 -30 19 C-27.83621446 11.4267506 -26.3225636 9.10966634 -20 5 C-13.56252145 2.0240148 -7.1175974 0 0 0 Z " fill="#FAFAFA" transform="translate(83,43)"/>
<path d="M0 0 C11.61424746 1.45178093 20.64408109 5.68250271 28 15 C28.66 16.32 29.32 17.64 30 19 C20.1 19 10.2 19 0 19 C0 12.73 0 6.46 0 0 Z " fill="#FAFAFA" transform="translate(89,43)"/>
<path d="M0 0 C11.22 0 22.44 0 34 0 C34 3.63 34 7.26 34 11 C23.11 11 12.22 11 1 11 C0.67 7.37 0.34 3.74 0 0 Z " fill="#F5F5F5" transform="translate(56,89)"/>
<path d="M0 0 C5.50167681 6.4852168 6.25164296 15.80349548 6.69140625 24.0390625 C6.83934044 26.23173064 6.83934044 26.23173064 9 28 C9.23046875 30.56640625 9.23046875 30.56640625 9.1875 33.5625 C9.18105469 34.55378906 9.17460937 35.54507813 9.16796875 36.56640625 C9 39 9 39 8 40 C5.98035801 40.07244053 3.95832876 40.08377188 1.9375 40.0625 C0.28041016 40.04896484 0.28041016 40.04896484 -1.41015625 40.03515625 C-2.26480469 40.02355469 -3.11945313 40.01195312 -4 40 C-4.33 40.99 -4.66 41.98 -5 43 C-6 40 -6 40 -5.3125 36.3125 C-4.56785291 31.3389929 -6.47748632 28.16508072 -9 24 C-9.33 23.34 -9.66 22.68 -10 22 C-8.02 22.99 -8.02 22.99 -6 24 C-6 24.66 -6 25.32 -6 26 C-2.7 26 0.6 26 4 26 C3.71722382 23.10304831 3.42412587 20.2077705 3.125 17.3125 C3.04636719 16.49587891 2.96773437 15.67925781 2.88671875 14.83789062 C2.4333028 10.53043909 1.76405371 6.99506281 0 3 C0 2.01 0 1.02 0 0 Z " fill="#6C6B6B" transform="translate(125,61)"/>
<path d="M0 0 C0 2.9044889 -0.36145052 4.20217901 -1.4375 6.8125 C-2.76128371 10.19064617 -3.5479929 13.38394317 -4 17 C1.73866286 16.75873003 1.73866286 16.75873003 6.5 13.9375 C7.2425 12.9784375 7.2425 12.9784375 8 12 C8.66 12.33 9.32 12.66 10 13 C9.21625 13.556875 8.4325 14.11375 7.625 14.6875 C3.33231422 18.84641937 3.5523749 25.36907381 3 31 C1.37536158 31.05395478 -0.24978541 31.09277195 -1.875 31.125 C-2.77992187 31.14820312 -3.68484375 31.17140625 -4.6171875 31.1953125 C-7 31 -7 31 -9 29 C-9.265625 26.6875 -9.265625 26.6875 -9.25 24 C-9.25515625 23.113125 -9.2603125 22.22625 -9.265625 21.3125 C-9 19 -9 19 -7 17 C-5.91787095 13.74923175 -5.01763551 10.46406907 -4.09765625 7.1640625 C-3.07437741 4.21439752 -2.02333119 2.34037738 0 0 Z " fill="#666465" transform="translate(23,70)"/>
<path d="M0 0 C0.66 0.33 1.32 0.66 2 1 C0.73046875 2.49739583 -0.5390625 3.99479167 -1.80859375 5.4921875 C-4.0360003 8.3111348 -4.24662128 10.60520851 -4.5625 14.125 C-4.64628906 15.03507812 -4.73007813 15.94515625 -4.81640625 16.8828125 C-4.87699219 17.58148438 -4.93757813 18.28015625 -5 19 C-6.04454346 19.01458252 -7.08908691 19.02916504 -8.1652832 19.04418945 C-12.04014345 19.10215551 -15.91442151 19.17938774 -19.78881836 19.26245117 C-21.46580559 19.29570863 -23.14290497 19.32373808 -24.82006836 19.34643555 C-27.23079225 19.37996737 -29.64048762 19.43227978 -32.05078125 19.48828125 C-32.80087967 19.49467117 -33.55097809 19.5010611 -34.32380676 19.50764465 C-38.45600986 19.59888472 -38.45600986 19.59888472 -41.99682617 21.53198242 C-42.32787354 22.01642822 -42.6589209 22.50087402 -43 23 C-42.649375 22.030625 -42.29875 21.06125 -41.9375 20.0625 C-40.81183996 16.19747147 -41.1181558 12.95831257 -41.7109375 9.015625 C-42 7 -42 7 -42 4 C-40.30472168 4.0314209 -40.30472168 4.0314209 -38.57519531 4.06347656 C-34.37838431 4.13592696 -30.18162848 4.18181784 -25.984375 4.21972656 C-24.1685252 4.23983061 -22.35274005 4.26711835 -20.53710938 4.30175781 C-17.92561895 4.35033039 -15.31498502 4.37298027 -12.703125 4.390625 C-11.89256653 4.41127014 -11.08200806 4.43191528 -10.24688721 4.45318604 C-6.47908912 4.4546829 -4.45524612 4.36227455 -1.45605469 1.97558594 C-0.97555664 1.32364258 -0.49505859 0.67169922 0 0 Z M-40 7 C-39.67 10.63 -39.34 14.26 -39 18 C-28.11 18 -17.22 18 -6 18 C-6 14.37 -6 10.74 -6 7 C-17.22 7 -28.44 7 -40 7 Z " fill="#626161" transform="translate(96,82)"/>
<path d="M0 0 C3.96 0 7.92 0 12 0 C12 3.3 12 6.6 12 10 C8.37 10 4.74 10 1 10 C0.67 6.7 0.34 3.4 0 0 Z " fill="#FBFBFB" transform="translate(121,89)"/>
<path d="M0 0 C1.9375 1.6875 1.9375 1.6875 3 4 C2.75925978 7.37036311 2.41201979 8.58798021 0 11 C-3.09771665 11.32954432 -5.17331023 11.45334601 -7.9375 9.9375 C-9.64787795 6.81857551 -8.80513863 4.34442199 -8 1 C-5.17116253 -0.41441874 -3.12623255 -0.31900332 0 0 Z " fill="#F9F9F9" transform="translate(109,90)"/>
<path d="M0 0 C2 2 2 2 2.25 5.5 C2 9 2 9 0 11 C-3.09771665 11.32954432 -5.17331023 11.45334601 -7.9375 9.9375 C-9.64787795 6.81857551 -8.80513863 4.34442199 -8 1 C-5.23749964 -0.38125018 -3.05268901 -0.19079306 0 0 Z " fill="#FBFBFB" transform="translate(44,90)"/>
<path d="M0 0 C3.3 0 6.6 0 10 0 C9.67 3.63 9.34 7.26 9 11 C2.84765625 11.09765625 2.84765625 11.09765625 1 11 C0 10 0 10 -0.09765625 7.71484375 C-0.06510417 5.14322917 -0.03255208 2.57161458 0 0 Z " fill="#F2F2F2" transform="translate(16,89)"/>
<path d="M0 0 C0.33 0 0.66 0 1 0 C1.02687279 1.81242052 1.04633715 3.62495233 1.0625 5.4375 C1.07410156 6.44683594 1.08570313 7.45617187 1.09765625 8.49609375 C1 11 1 11 0 12 C-2.01964199 12.07244053 -4.04167124 12.08377188 -6.0625 12.0625 C-7.71958984 12.04896484 -7.71958984 12.04896484 -9.41015625 12.03515625 C-10.26480469 12.02355469 -11.11945313 12.01195313 -12 12 C-12.33 12.99 -12.66 13.98 -13 15 C-14 12 -14 12 -13 9 C-8.71 9.33 -4.42 9.66 0 10 C0 6.7 0 3.4 0 0 Z " fill="#626161" transform="translate(133,89)"/>
<path d="M0 0 C0.66 0.33 1.32 0.66 2 1 C0.85677009 2.14322991 -0.28710215 3.28582237 -1.43359375 4.42578125 C-2.56106195 5.55887273 -3.67690909 6.70357072 -4.78515625 7.85546875 C-5.39230469 8.48066406 -5.99945313 9.10585938 -6.625 9.75 C-7.19476563 10.34296875 -7.76453125 10.9359375 -8.3515625 11.546875 C-10 13 -10 13 -13 14 C-10.10875142 7.4946907 -5.76686831 3.88154598 0 0 Z " fill="#888787" transform="translate(61,43)"/>
<path d="M0 0 C0.66 0.33 1.32 0.66 2 1 C0.90033225 2.29549899 -0.20491801 3.58626071 -1.3125 4.875 C-1.92738281 5.59429687 -2.54226562 6.31359375 -3.17578125 7.0546875 C-5 9 -5 9 -8 11 C-7.91433603 8.087425 -7.42089045 6.43201976 -5.375 4.33203125 C-3.61608625 2.83908228 -1.83686981 1.39563738 0 0 Z " fill="#A4A4A4" transform="translate(63,48)"/>
</svg>
